<svg width="195" height="115" viewBox="0 0 195 115" fill="none" xmlns="http://www.w3.org/2000/svg">
<path d="M96.5406 61V39.656H105.021C106.663 39.656 108.039 39.88 109.149 40.328C110.258 40.7547 111.101 41.4053 111.677 42.28C112.253 43.1333 112.541 44.2107 112.541 45.512C112.541 46.4507 112.327 47.2187 111.901 47.816C111.495 48.4133 110.994 48.8933 110.397 49.256C109.821 49.5973 109.277 49.896 108.765 50.152L108.285 49.256C109.266 49.3413 110.162 49.608 110.973 50.056C111.805 50.4827 112.466 51.08 112.957 51.848C113.447 52.616 113.693 53.5547 113.693 54.664C113.693 56.136 113.341 57.3413 112.637 58.28C111.954 59.2187 111.015 59.912 109.821 60.36C108.647 60.7867 107.314 61 105.821 61H96.5406ZM100.893 57.544H105.597C106.237 57.544 106.834 57.4587 107.389 57.288C107.943 57.1173 108.391 56.808 108.733 56.36C109.074 55.912 109.245 55.2933 109.245 54.504C109.245 53.8853 109.138 53.3947 108.925 53.032C108.711 52.648 108.423 52.36 108.061 52.168C107.698 51.9547 107.293 51.816 106.845 51.752C106.418 51.6667 105.97 51.624 105.501 51.624H100.893V57.544ZM100.893 48.296H105.373C105.821 48.296 106.258 48.232 106.685 48.104C107.111 47.9547 107.453 47.7093 107.709 47.368C107.986 47.0053 108.125 46.504 108.125 45.864C108.125 44.8187 107.837 44.104 107.261 43.72C106.685 43.336 105.949 43.144 105.053 43.144H100.893V48.296ZM117.603 61V39.656H121.955V57.48H131.683V61H117.603ZM133.121 61L141.313 39.656H146.017L153.825 61H149.345L142.369 41.128L144.289 40.968L137.313 61H133.121ZM137.441 55.784L138.465 52.456H148.417L148.769 55.784H137.441ZM165.352 61.352C161.981 61.352 159.421 60.456 157.672 58.664C155.923 56.8507 155.048 54.0667 155.048 50.312C155.048 46.664 155.901 43.912 157.608 42.056C159.315 40.1787 161.896 39.24 165.352 39.24C166.483 39.24 167.613 39.3787 168.744 39.656C169.896 39.9333 171.005 40.3173 172.072 40.808V44.648C170.984 43.9653 169.928 43.4747 168.904 43.176C167.88 42.8773 166.888 42.728 165.928 42.728C164.52 42.728 163.336 42.984 162.376 43.496C161.437 43.9867 160.723 44.7867 160.232 45.896C159.763 47.0053 159.528 48.488 159.528 50.344C159.528 52.1787 159.773 53.6507 160.264 54.76C160.755 55.8693 161.48 56.6693 162.44 57.16C163.421 57.6507 164.637 57.896 166.088 57.896C166.963 57.896 167.901 57.7467 168.904 57.448C169.928 57.1493 170.984 56.6693 172.072 56.008V59.848C171.453 60.1467 170.76 60.4133 169.992 60.648C169.245 60.8827 168.477 61.0533 167.688 61.16C166.899 61.288 166.12 61.352 165.352 61.352ZM180.262 54.472L179.014 51.24L188.07 39.656H193.542L180.262 54.472ZM176.134 61V39.656H180.486V61H176.134ZM184.582 48.136L194.214 61H188.678L181.222 50.92L184.582 48.136Z" fill="#F5F1F0"/>
<path d="M23.8318 62.896C16.9198 62.896 11.6291 61.104 7.95975 57.52C4.33308 53.936 2.51975 48.3253 2.51975 40.688C2.51975 33.3067 4.24775 27.7387 7.70375 23.984C11.2024 20.1867 16.5784 18.288 23.8318 18.288C26.0931 18.288 28.3758 18.5653 30.6798 19.12C33.0264 19.6747 35.3091 20.4427 37.5278 21.424V31.408C35.2238 29.872 33.0478 28.784 30.9998 28.144C28.9518 27.4613 27.0958 27.12 25.4318 27.12C23.1278 27.12 21.1651 27.5467 19.5438 28.4C17.9224 29.2107 16.6638 30.5973 15.7678 32.56C14.9144 34.5227 14.4878 37.2533 14.4878 40.752C14.4878 44.1227 14.9358 46.7893 15.8318 48.752C16.7278 50.7147 18.0078 52.1013 19.6718 52.912C21.3784 53.68 23.4691 54.064 25.9438 54.064C27.3944 54.064 29.1011 53.744 31.0638 53.104C33.0691 52.464 35.2238 51.3973 37.5278 49.904V59.888C36.3758 60.4853 35.0104 61.0187 33.4318 61.488C31.8958 61.9147 30.2744 62.256 28.5678 62.512C26.9038 62.768 25.3251 62.896 23.8318 62.896ZM65.2948 63.472C58.5108 63.472 53.4334 62.1067 50.0628 59.376C46.7348 56.6453 45.0708 52.3147 45.0708 46.384V19.312H57.1667V45.744C57.1667 48.7733 57.7428 51.0133 58.8948 52.464C60.0894 53.9147 62.0308 54.64 64.7188 54.64C67.1081 54.64 68.9641 53.9147 70.2868 52.464C71.6094 51.0133 72.2708 48.7733 72.2708 45.744V19.312H83.2788V46.384C83.2788 50.352 82.5108 53.5947 80.9748 56.112C79.4388 58.6293 77.3054 60.4853 74.5748 61.68C71.8868 62.8747 68.7934 63.472 65.2948 63.472Z" fill="#FF8BBC"/>
<path d="M3.99063 105V72.984H10.7106L21.9426 89.112L18.2466 89.4L30.0066 72.984H36.5346V105H30.0546V78.168L31.5426 79.896L19.9746 95.592L8.74263 79.848L10.2786 78.504V105H3.99063ZM40.8606 105L53.1486 72.984H60.2046L71.9166 105H65.1966L54.7326 75.192L57.6126 74.952L47.1486 105H40.8606ZM47.3406 97.176L48.8766 92.184H63.8046L64.3326 97.176H47.3406ZM76.225 105V72.984H91.105C94.593 72.984 97.281 73.816 99.169 75.48C101.089 77.112 102.049 79.576 102.049 82.872C102.049 84.408 101.729 85.88 101.089 87.288C100.481 88.664 99.569 89.816 98.353 90.744C97.169 91.672 95.713 92.248 93.985 92.472L94.033 90.36L103.681 105H95.473L87.025 90.84L89.953 93.432H82.753V105H76.225ZM82.753 88.44H89.713C91.473 88.44 92.817 88.024 93.745 87.192C94.673 86.328 95.137 85 95.137 83.208C95.137 81.608 94.753 80.376 93.985 79.512C93.217 78.648 92.001 78.216 90.337 78.216H82.753V88.44ZM115.37 95.208L113.498 90.36L127.082 72.984H135.29L115.37 95.208ZM109.178 105V72.984H115.706V105H109.178ZM121.85 85.704L136.298 105H127.994L116.81 89.88L121.85 85.704ZM140.866 105V72.984H162.322V78.216H147.394V86.328H160.354V91.608H147.394V99.768H162.322V105H140.866ZM176.283 105V78.216H166.587V72.984H192.555V78.216H182.811V105H176.283Z" fill="#F5F1F0"/>
</svg>
